HIERARCHY
ROOT hip
{
  OFFSET 356.725 77.773 -16.5809
  CHANNELS 6 Xposition Yposition Zposition Zrotation Xrotation Yrotation
  JOINT abdomen
  {
    OFFSET 0 20.6881 -0.73152
    CHANNELS 3 Zrotation Xrotation Yrotation
    JOINT chest
    {
      OFFSET 0 11.7043 -0.48768
      CHANNELS 3 Zrotation Xrotation Yrotation
      JOINT neck
      {
        OFFSET 0 22.1894 -2.19456
        CHANNELS 3 Zrotation Xrotation Yrotation
        JOINT head
        {
          OFFSET -0.24384 7.07133 1.2192
          CHANNELS 3 Zrotation Xrotation Yrotation
          JOINT leftEye
          {
            OFFSET 4.14528 8.04674 8.04672
            CHANNELS 3 Zrotation Xrotation Yrotation
            End Site
            {
              OFFSET 1 0 0
            }
          }
          JOINT rightEye
          {
            OFFSET -3.6576 8.04674 8.04672
            CHANNELS 3 Zrotation Xrotation Yrotation
            End Site
            {
              OFFSET 1 0 0
            }
          }
        }
      }
      JOINT rCollar
      {
        OFFSET -2.68224 19.2634 -4.8768
        CHANNELS 3 Zrotation Xrotation Yrotation
        JOINT rShldr
        {
          OFFSET -8.77824 -1.95073 1.46304
          CHANNELS 3 Zrotation Xrotation Yrotation
          JOINT rForeArm
          {
            OFFSET -28.1742 -1.7115 0.48768
            CHANNELS 3 Zrotation Xrotation Yrotation
            JOINT rHand
            {
              OFFSET -22.5879 0.773209 7.07136
              CHANNELS 3 Zrotation Xrotation Yrotation
              JOINT rThumb1
              {
                OFFSET -1.2192 -0.487915 3.41376
                CHANNELS 3 Zrotation Xrotation Yrotation
                JOINT rThumb2
                {
                  OFFSET -3.37035 -0.52449 3.41376
                  CHANNELS 3 Zrotation Xrotation Yrotation
                  End Site
                  {
                    OFFSET -1.78271 -1.18214 1.43049
                  }
                }
              }
              JOINT rIndex1
              {
                OFFSET -7.75947 0.938293 5.60832
                CHANNELS 3 Zrotation Xrotation Yrotation
                JOINT rIndex2
                {
                  OFFSET -2.54057 -0.884171 1.56538
                  CHANNELS 3 Zrotation Xrotation Yrotation
                  End Site
                  {
                    OFFSET -1.62519 -0.234802 1.16502
                  }
                }
              }
              JOINT rMid1
              {
                OFFSET -8.24714 1.18213 3.41376
                CHANNELS 3 Zrotation Xrotation Yrotation
                JOINT rMid2
                {
                  OFFSET -3.10165 -0.590103 1.0647
                  CHANNELS 3 Zrotation Xrotation Yrotation
                  End Site
                  {
                    OFFSET -2.48547 -0.328903 0.83742
                  }
                }
              }
              JOINT rRing1
              {
                OFFSET -8.82822 0.546677 1.51678
                CHANNELS 3 Zrotation Xrotation Yrotation
                JOINT rRing2
                {
                  OFFSET -2.60934 -0.819778 -0.0198488
                  CHANNELS 3 Zrotation Xrotation Yrotation
                  End Site
                  {
                    OFFSET -2.33842 -0.294052 0.168128
                  }
                }
              }
              JOINT rPinky1
              {
                OFFSET -8.27202 -0.0477905 -0.4584
                CHANNELS 3 Zrotation Xrotation Yrotation
                JOINT rPinky2
                {
                  OFFSET -1.82734 -0.647385 -0.700984
                  CHANNELS 3 Zrotation Xrotation Yrotation
                  End Site
                  {
                    OFFSET -1.69225 -0.51767 -0.607171
                  }
                }
              }
            }
          }
        }
      }
      JOINT lCollar
      {
        OFFSET 2.68224 19.2634 -4.8768
        CHANNELS 3 Zrotation Xrotation Yrotation
        JOINT lShldr
        {
          OFFSET 8.77824 -1.95073 1.46304
          CHANNELS 3 Zrotation Xrotation Yrotation
          JOINT lForeArm
          {
            OFFSET 28.1742 -1.7115 0.48768
            CHANNELS 3 Zrotation Xrotation Yrotation
            JOINT lHand
            {
              OFFSET 22.5879 0.773209 7.07136
              CHANNELS 3 Zrotation Xrotation Yrotation
              JOINT lThumb1
              {
                OFFSET 1.2192 -0.487915 3.41376
                CHANNELS 3 Zrotation Xrotation Yrotation
                JOINT lThumb2
                {
                  OFFSET 3.37035 -0.52449 3.41376
                  CHANNELS 3 Zrotation Xrotation Yrotation
                  End Site
                  {
                    OFFSET 1.78271 -1.18214 1.43049
                  }
                }
              }
              JOINT lIndex1
              {
                OFFSET 7.75947 0.938293 5.60832
                CHANNELS 3 Zrotation Xrotation Yrotation
                JOINT lIndex2
                {
                  OFFSET 2.54057 -0.884171 1.56538
                  CHANNELS 3 Zrotation Xrotation Yrotation
                  End Site
                  {
                    OFFSET 1.62519 -0.234802 1.16502
                  }
                }
              }
              JOINT lMid1
              {
                OFFSET 8.24714 1.18213 3.41376
                CHANNELS 3 Zrotation Xrotation Yrotation
                JOINT lMid2
                {
                  OFFSET 3.10165 -0.590103 1.0647
                  CHANNELS 3 Zrotation Xrotation Yrotation
                  End Site
                  {
                    OFFSET 2.48547 -0.328903 0.83742
                  }
                }
              }
              JOINT lRing1
              {
                OFFSET 8.82822 0.546677 1.51678
                CHANNELS 3 Zrotation Xrotation Yrotation
                JOINT lRing2
                {
                  OFFSET 2.60934 -0.819778 -0.0198488
                  CHANNELS 3 Zrotation Xrotation Yrotation
                  End Site
                  {
                    OFFSET 2.33842 -0.294052 0.168128
                  }
                }
              }
              JOINT lPinky1
              {
                OFFSET 8.27202 -0.0477905 -0.4584
                CHANNELS 3 Zrotation Xrotation Yrotation
                JOINT lPinky2
                {
                  OFFSET 1.82734 -0.647385 -0.700984
                  CHANNELS 3 Zrotation Xrotation Yrotation
                  End Site
                  {
                    OFFSET 1.69225 -0.51767 -0.607171
                  }
                }
              }
            }
          }
        }
      }
    }
  }
  JOINT rButtock
  {
    OFFSET -8.77824 4.35084 1.2192
    CHANNELS 3 Zrotation Xrotation Yrotation
    JOINT rThigh
    {
      OFFSET 0 -1.70687 -2.19456
      CHANNELS 3 Zrotation Xrotation Yrotation
      JOINT rShin
      {
        OFFSET 0 -36.8199 0.73152
        CHANNELS 3 Zrotation Xrotation Yrotation
        JOINT rFoot
        {
          OFFSET 0.73152 -45.1104 -5.12064
          CHANNELS 3 Zrotation Xrotation Yrotation
          End Site
          {
            OFFSET -1.1221 -3.69964 12.103
          }
        }
      }
    }
  }
  JOINT lButtock
  {
    OFFSET 8.77824 4.35084 1.2192
    CHANNELS 3 Zrotation Xrotation Yrotation
    JOINT lThigh
    {
      OFFSET 0 -1.70687 -2.19456
      CHANNELS 3 Zrotation Xrotation Yrotation
      JOINT lShin
      {
        OFFSET 0 -36.8199 0.73152
        CHANNELS 3 Zrotation Xrotation Yrotation
        JOINT lFoot
        {
          OFFSET -0.73152 -45.1104 -5.12064
          CHANNELS 3 Zrotation Xrotation Yrotation
          End Site
          {
            OFFSET 1.1221 -3.69964 12.103
          }
        }
      }
    }
  }
}
MOTION
Frames:	8
Frame Time:	0.00833333
-169.378 85.4571 12.936 -1.46715 0.00515075 0.0277561 1.92988 -0.00172224 0.0523842 0.532096 0.00507013 0.092125 -4.6813e-014 0 5.71506e-016 -1.40649e-013 3.18055e-015 1.73626e-015 -0 0 0 -0 0 0 -2.34579e-014 1.32588e-016 4.96962e-016 -4.90422e-013 2.52208e-015 5.36719e-015 -8.46057e-012 2.62137e-012 1.87653e-013 -9.68195e-011 -2.0243e-012 1.02732e-012 -2.28385e-010 1.29996e-012 2.69075e-012 -3.94417e-010 2.24865e-012 4.64759e-012 -2.28383e-010 1.29886e-012 2.67803e-012 7.73091 5.47488 0.417314 -2.28385e-010 1.29936e-012 2.69393e-012 2.90554 0.965183 0.102902 -2.28387e-010 1.29936e-012 2.69552e-012 10.2786 0.731801 0.0259123 -2.28393e-010 1.30442e-012 2.70665e-012 2.22167 -0.733487 -0.20892 -2.36556e-014 1.30258e-016 9.93923e-017 -4.93853e-013 2.72087e-015 3.57812e-015 -8.4645e-012 -2.43293e-012 1.87653e-013 -9.68463e-011 3.04613e-012 1.05594e-012 -2.28444e-010 1.33198e-012 2.69711e-012 -3.94494e-010 2.3059e-012 4.66031e-012 -2.28445e-010 1.32947e-012 2.70347e-012 -7.73091 5.47488 -0.417314 -2.28442e-010 1.33146e-012 2.69393e-012 -2.90554 0.965183 -0.102902 -2.28445e-010 1.33136e-012 2.69472e-012 -10.2786 0.731801 -0.0259123 -2.28435e-010 1.33544e-012 2.68439e-012 -2.22167 -0.733487 0.20892 -2.03217e-016 0 -3.88251e-019 1.9595 -7.26116 -0.192018 0.00412031 7.58528 0.10706 -0.521323 -0.330668 0.0523321 2.03217e-016 0 3.88251e-019 0.978529 -1.92613 0.000838966 0.00897417 -2.0786 0.073948 0.486012 3.99809 -0.136462 
-162.736 85.5257 4.34319 1.0858 3.32108 23.5278 0.465761 2.06882 0.965765 1.08839 -0.783153 0.376529 0.936239 -1.60784 0.748685 -0.917464 1.32472 1.25949 -0 0 0 -0 0 0 -1.14341e-014 8.41219e-012 -2.49475e-014 22.1487 10.2201 0.419727 -3.91523 -1.72243 6.17521 0.0112481 2.353 0.329685 -1.88223e-009 -3.49451e-010 1.0892e-009 -3.24421e-009 -6.044e-010 1.89684e-009 -1.88223e-009 -3.49451e-010 1.08919e-009 7.73091 5.47488 0.417314 -1.88223e-009 -3.49449e-010 1.0892e-009 2.90554 0.965183 0.102902 -1.88223e-009 -3.49449e-010 1.0892e-009 10.2786 0.731801 0.0259123 -1.88224e-009 -3.49444e-010 1.08921e-009 2.22167 -0.733487 -0.20892 -1.15777e-014 8.41234e-012 -2.526e-014 -21.5602 11.3169 -1.24889 3.13868 -1.26277 -5.06542 -0.0458433 4.75283 -0.659694 2.11284e-009 -9.3685e-010 -1.03517e-009 3.6368e-009 -1.61767e-009 -1.82169e-009 2.11284e-009 -9.36852e-010 -1.03516e-009 -7.73091 5.47488 -0.417314 2.11284e-009 -9.36852e-010 -1.03517e-009 -2.90554 0.965183 -0.102902 2.11284e-009 -9.36852e-010 -1.03517e-009 -10.2786 0.731801 -0.0259123 2.11285e-009 -9.36848e-010 -1.03518e-009 -2.22167 -0.733487 0.20892 -2.03217e-016 0 -3.88251e-019 -0.499037 -4.53527 -1.8766 0.00331225 7.99452 0.119383 -0.615654 -4.37079 -1.93829 2.03217e-016 0 3.88251e-019 1.79071 1.25404 0.13671 0.00353477 -2.34376 0.0518539 0.650029 0.648717 3.36985 
-162.741 85.4997 4.36819 1.1784 4.9256 48.5261 -1.15083 4.25658 1.93797 1.68269 -1.6172 0.678133 1.97256 -3.30648 1.54054 -1.95089 2.72072 2.58964 -0 0 0 -0 0 0 9.76775e-016 1.79334e-011 -5.40446e-014 45.3945 21.0236 0.909594 -7.65079 -3.47506 12.7176 -0.00640754 4.84265 0.680408 -3.6917e-009 -7.32786e-010 2.27918e-009 -6.36216e-009 -1.2674e-009 3.9692e-009 -3.6917e-009 -7.32784e-010 2.27917e-009 7.73091 5.47488 0.417314 -3.6917e-009 -7.3278e-010 2.27918e-009 2.90554 0.965183 0.102902 -3.6917e-009 -7.3278e-010 2.27918e-009 10.2786 0.731801 0.0259123 -3.69171e-009 -7.32776e-010 2.27919e-009 2.22167 -0.733487 -0.20892 8.91406e-016 1.79337e-011 -5.42651e-014 -43.775 23.2743 -2.7437 6.21853 -2.56689 -10.4339 0.0262532 9.76787 -1.37133 4.67135e-009 -1.95627e-009 -2.17398e-009 8.04204e-009 -3.37785e-009 -3.82559e-009 4.67135e-009 -1.95627e-009 -2.17397e-009 -7.73091 5.47488 -0.417314 4.67135e-009 -1.95627e-009 -2.17398e-009 -2.90554 0.965183 -0.102902 4.67135e-009 -1.95627e-009 -2.17398e-009 -10.2786 0.731801 -0.0259123 4.67136e-009 -1.95627e-009 -2.17399e-009 -2.22167 -0.733487 0.20892 -2.03217e-016 0 -3.88251e-019 -2.9164 -1.65463 -3.64137 0.002292 8.42549 0.132433 -1.02528 -8.6281 -4.08745 2.03217e-016 0 3.88251e-019 2.63475 4.61549 0.274368 -0.00243552 -2.62365 0.0284347 1.26925 -2.87079 7.08807 
-162.786 85.4297 4.38975 0.287296 3.62127 70.7268 -2.66144 6.2034 2.80709 2.22447 -2.35933 0.946034 2.93512 -4.82023 2.25314 -2.92733 3.96647 3.78655 -0 0 0 -0 0 0 1.26137e-014 2.52363e-011 -7.58364e-014 65.9349 30.6531 1.44052 -10.65 -4.92766 18.5884 -0.0480157 7.05805 0.995768 -5.18993e-009 -1.05095e-009 3.26222e-009 -8.9438e-009 -1.8177e-009 5.68121e-009 -5.18993e-009 -1.05095e-009 3.26221e-009 7.73091 5.47488 0.417314 -5.18993e-009 -1.05094e-009 3.26222e-009 2.90554 0.965183 0.102902 -5.18992e-009 -1.05094e-009 3.26222e-009 10.2786 0.731801 0.0259123 -5.18993e-009 -1.05094e-009 3.26223e-009 2.22167 -0.733487 -0.20892 1.2578e-014 2.52368e-011 -7.59788e-014 -62.945 33.8794 -4.42652 8.75378 -3.67006 -15.2245 0.199609 14.2508 -2.03492 6.7954e-009 -2.81321e-009 -3.1109e-009 1.16994e-008 -4.85762e-009 -5.4744e-009 6.7954e-009 -2.81322e-009 -3.11089e-009 -7.73091 5.47488 -0.417314 6.7954e-009 -2.81322e-009 -3.1109e-009 -2.90554 0.965183 -0.102902 6.7954e-009 -2.81322e-009 -3.1109e-009 -10.2786 0.731801 -0.0259123 6.79541e-009 -2.81322e-009 -3.1109e-009 -2.22167 -0.733487 0.20892 -2.03217e-016 0 -3.88251e-019 -4.93642 0.905528 -5.23188 0.00116156 8.81298 0.144122 -1.66195 -12.3914 -6.04391 2.03217e-016 0 3.88251e-019 3.3695 7.61421 0.411989 -0.00795828 -2.87409 0.00764256 2.2052 -5.94735 10.438 
-162.757 85.4299 4.40133 -0.0425909 0.973126 85.9153 -3.76535 7.55416 3.40457 2.6182 -2.8719 1.12902 3.62442 -5.87492 2.76091 -3.63904 4.84381 4.64281 -0 0 0 -0 0 0 2.23159e-014 2.69931e-011 -7.93648e-014 80.0887 37.3538 1.90581 -12.571 -5.85729 22.7208 -0.0913362 8.58875 1.21628 -5.91005e-009 -1.2062e-009 3.72793e-009 -1.01847e-008 -2.08622e-009 6.49235e-009 -5.91005e-009 -1.2062e-009 3.72792e-009 7.73091 5.47488 0.417314 -5.91004e-009 -1.20619e-009 3.72793e-009 2.90554 0.965183 0.102902 -5.91004e-009 -1.20619e-009 3.72793e-009 10.2786 0.731801 0.0259123 -5.91005e-009 -1.20619e-009 3.72794e-009 2.22167 -0.733487 -0.20892 2.23082e-014 2.69939e-011 -7.94642e-014 -75.8043 41.1711 -5.94558 10.3945 -4.38454 -18.5433 0.386823 17.4106 -2.52593 7.83331e-009 -3.26396e-009 -3.54308e-009 1.34871e-008 -5.63634e-009 -6.2355e-009 7.83331e-009 -3.26396e-009 -3.54306e-009 -7.73091 5.47488 -0.417314 7.83331e-009 -3.26397e-009 -3.54307e-009 -2.90554 0.965183 -0.102902 7.83331e-009 -3.26397e-009 -3.54307e-009 -10.2786 0.731801 -0.0259123 7.83332e-009 -3.26397e-009 -3.54308e-009 -2.22167 -0.733487 0.20892 -2.03217e-016 0 -3.88251e-019 -6.29714 2.67881 -6.38522 0.000129327 9.09177 0.152339 -2.24738 -14.9778 -7.39937 2.03217e-016 0 3.88251e-019 3.85959 9.70624 0.546246 -0.0119278 -3.05094 -0.00656414 3.06442 -8.02678 12.7919 
-162.753 85.4193 4.39398 0.0287817 -0.456376 91.7388 -4.23267 8.07395 3.61136 2.79676 -3.06006 1.19246 3.88871 -6.28788 2.97669 -3.92277 5.20876 5.01672 -0 0 0 -0 0 0 1.6885e-014 1.95196e-011 -3.7653e-014 85.5309 39.9826 2.12588 -13.3088 -6.21485 24.3933 -0.110572 9.14824 1.29758 -5.39118e-009 -1.1079e-009 3.40935e-009 -9.29035e-009 -1.91619e-009 5.93726e-009 -5.39118e-009 -1.1079e-009 3.40934e-009 7.73091 5.47488 0.417314 -5.39118e-009 -1.10789e-009 3.40934e-009 2.90554 0.965183 0.102902 -5.39117e-009 -1.10789e-009 3.40935e-009 10.2786 0.731801 0.0259123 -5.39118e-009 -1.10789e-009 3.40936e-009 2.22167 -0.733487 -0.20892 1.68723e-014 1.9521e-011 -3.77617e-014 -80.6798 43.8953 -6.63268 10.9801 -4.6318 -19.7804 0.479222 18.7118 -2.73493 7.17311e-009 -3.07764e-009 -3.13126e-009 1.23526e-008 -5.31575e-009 -5.51381e-009 7.1731e-009 -3.07764e-009 -3.13124e-009 -7.73091 5.47488 -0.417314 7.1731e-009 -3.07765e-009 -3.13125e-009 -2.90554 0.965183 -0.102902 7.1731e-009 -3.07765e-009 -3.13125e-009 -10.2786 0.731801 -0.0259123 7.17311e-009 -3.07765e-009 -3.13126e-009 -2.22167 -0.733487 0.20892 -2.03217e-016 0 -3.88251e-019 -6.88239 3.36762 -6.92368 -0.000594722 9.21486 0.155565 -2.47451 -15.9476 -7.82725 2.03217e-016 0 3.88251e-019 4.02333 10.5372 0.672133 -0.0136663 -3.13532 -0.0111469 3.42732 -8.78714 13.6854 
-162.765 85.4071 4.37567 0.0153904 -0.280955 91.0409 -4.23119 8.00141 3.53638 2.82003 -3.0167 1.1704 3.84002 -6.24317 2.98252 -3.88759 5.20936 5.04448 -0 0 0 -0 0 0 1.23656e-015 5.52283e-012 3.54365e-014 84.8235 39.7038 2.11534 -13.2733 -6.20933 24.299 -0.106647 9.01484 1.27824 -3.99445e-009 -8.29705e-010 2.53342e-009 -6.8832e-009 -1.43499e-009 4.4113e-009 -3.99445e-009 -8.29703e-010 2.53341e-009 7.73091 5.47488 0.417314 -3.99445e-009 -8.297e-010 2.53341e-009 2.90554 0.965183 0.102902 -3.99444e-009 -8.297e-010 2.53342e-009 10.2786 0.731801 0.0259123 -3.99445e-009 -8.29698e-010 2.53342e-009 2.22167 -0.733487 -0.20892 1.19512e-015 5.52507e-012 3.52812e-014 -80.1267 43.3781 -6.50403 10.8553 -4.56702 -19.5266 0.474875 18.6875 -2.73045 5.30841e-009 -2.43952e-009 -2.12312e-009 9.14528e-009 -4.21553e-009 -3.74443e-009 5.30841e-009 -2.43953e-009 -2.12311e-009 -7.73091 5.47488 -0.417314 5.30841e-009 -2.43953e-009 -2.12311e-009 -2.90554 0.965183 -0.102902 5.30841e-009 -2.43953e-009 -2.12311e-009 -10.2786 0.731801 -0.0259123 5.30842e-009 -2.43953e-009 -2.12312e-009 -2.22167 -0.733487 0.20892 -2.03217e-016 0 -3.88251e-019 -6.95023 3.28601 -7.01806 -0.00105771 9.2269 0.155223 -2.38224 -15.774 -7.56963 2.03217e-016 0 3.88251e-019 3.95912 10.467 0.790879 -0.0137591 -3.15317 -0.00887179 3.34823 -8.63086 13.5162 
-162.761 85.4101 4.37622 -0.0299385 0.609697 87.7533 -4.04908 7.69312 3.34995 2.78209 -2.88585 1.1145 3.67017 -6.01736 2.90519 -3.72863 5.06698 4.93394 -0 0 0 -0 0 0 1.37995e-015 -8.73789e-012 8.96026e-014 81.6602 38.2261 2.01373 -12.9223 -6.05381 23.4817 -0.094242 8.62544 1.22178 -2.48599e-009 -5.20291e-010 1.53058e-009 -4.28387e-009 -8.99863e-010 2.66498e-009 -2.48599e-009 -5.2029e-010 1.53058e-009 7.73091 5.47488 0.417314 -2.48599e-009 -5.2029e-010 1.53058e-009 2.90554 0.965183 0.102902 -2.48598e-009 -5.20289e-010 1.53058e-009 10.2786 0.731801 0.0259123 -2.486e-009 -5.20287e-010 1.53059e-009 2.22167 -0.733487 -0.20892 1.30512e-015 -8.73495e-012 8.93914e-014 -77.4019 41.547 -6.05301 10.4472 -4.37828 -18.6825 0.431683 18.1517 -2.64303 3.24595e-009 -1.73013e-009 -1.09623e-009 5.59628e-009 -2.99205e-009 -1.93991e-009 3.24594e-009 -1.73014e-009 -1.09622e-009 -7.73091 5.47488 -0.417314 3.24595e-009 -1.73014e-009 -1.09623e-009 -2.90554 0.965183 -0.102902 3.24594e-009 -1.73014e-009 -1.09622e-009 -10.2786 0.731801 -0.0259123 3.24596e-009 -1.73014e-009 -1.09623e-009 -2.22167 -0.733487 0.20892 -2.03217e-016 0 -3.88251e-019 -6.81519 2.8901 -6.9209 -0.00142014 9.20015 0.15361 -2.1715 -15.1575 -7.04372 2.03217e-016 0 3.88251e-019 3.80215 10.0233 0.907862 -0.0129758 -3.12745 -0.0044856 3.10064 -8.12113 12.9232 
